HIERARCHY
ROOT hip
{
  OFFSET 0 0 0
  CHANNELS 6 Xposition Yposition Zposition Zrotation Yrotation Xrotation
  JOINT abdomen
  {
    OFFSET 0 20.6881 -0.73152
    CHANNELS 3 Zrotation Xrotation Yrotation
    JOINT chest
    {
      OFFSET 0 11.7043 -0.48768
      CHANNELS 3 Zrotation Xrotation Yrotation
      JOINT neck
      {
        OFFSET 0 22.1894 -2.19456
        CHANNELS 3 Zrotation Xrotation Yrotation
        JOINT head
        {
          OFFSET -0.24384 7.07133 1.2192
          CHANNELS 3 Zrotation Xrotation Yrotation
          JOINT leftEye
          {
            OFFSET 4.14528 8.04674 8.04672
            CHANNELS 3 Zrotation Xrotation Yrotation
            End Site
            {
              OFFSET 1 0 0
            }
          }
          JOINT rightEye
          {
            OFFSET -3.6576 8.04674 8.04672
            CHANNELS 3 Zrotation Xrotation Yrotation
            End Site
            {
              OFFSET 1 0 0
            }
          }
        }
      }
      JOINT rCollar
      {
        OFFSET -2.68224 19.2634 -4.8768
        CHANNELS 3 Zrotation Xrotation Yrotation
        JOINT rShldr
        {
          OFFSET -8.77824 -1.95073 1.46304
          CHANNELS 3 Zrotation Xrotation Yrotation
          JOINT rForeArm
          {
            OFFSET -28.1742 -1.7115 0.48768
            CHANNELS 3 Zrotation Xrotation Yrotation
            JOINT rHand
            {
              OFFSET -22.5879 0.773209 7.07136
              CHANNELS 3 Zrotation Xrotation Yrotation
              JOINT rThumb1
              {
                OFFSET -1.2192 -0.487915 3.41376
                CHANNELS 3 Zrotation Xrotation Yrotation
                JOINT rThumb2
                {
                  OFFSET -3.37035 -0.52449 3.41376
                  CHANNELS 3 Zrotation Xrotation Yrotation
                  End Site
                  {
                    OFFSET -1.78271 -1.18214 1.43049
                  }
                }
              }
              JOINT rIndex1
              {
                OFFSET -7.75947 0.938293 5.60832
                CHANNELS 3 Zrotation Xrotation Yrotation
                JOINT rIndex2
                {
                  OFFSET -2.54057 -0.884171 1.56538
                  CHANNELS 3 Zrotation Xrotation Yrotation
                  End Site
                  {
                    OFFSET -1.62519 -0.234802 1.16502
                  }
                }
              }
              JOINT rMid1
              {
                OFFSET -8.24714 1.18213 3.41376
                CHANNELS 3 Zrotation Xrotation Yrotation
                JOINT rMid2
                {
                  OFFSET -3.10165 -0.590103 1.0647
                  CHANNELS 3 Zrotation Xrotation Yrotation
                  End Site
                  {
                    OFFSET -2.48547 -0.328903 0.83742
                  }
                }
              }
              JOINT rRing1
              {
                OFFSET -8.82822 0.546677 1.51678
                CHANNELS 3 Zrotation Xrotation Yrotation
                JOINT rRing2
                {
                  OFFSET -2.60934 -0.819778 -0.0198488
                  CHANNELS 3 Zrotation Xrotation Yrotation
                  End Site
                  {
                    OFFSET -2.33842 -0.294052 0.168128
                  }
                }
              }
              JOINT rPinky1
              {
                OFFSET -8.27202 -0.0477905 -0.4584
                CHANNELS 3 Zrotation Xrotation Yrotation
                JOINT rPinky2
                {
                  OFFSET -1.82734 -0.647385 -0.700984
                  CHANNELS 3 Zrotation Xrotation Yrotation
                  End Site
                  {
                    OFFSET -1.69225 -0.51767 -0.607171
                  }
                }
              }
            }
          }
        }
      }
      JOINT lCollar
      {
        OFFSET 2.68224 19.2634 -4.8768
        CHANNELS 3 Zrotation Xrotation Yrotation
        JOINT lShldr
        {
          OFFSET 8.77824 -1.95073 1.46304
          CHANNELS 3 Zrotation Xrotation Yrotation
          JOINT lForeArm
          {
            OFFSET 28.1742 -1.7115 0.48768
            CHANNELS 3 Zrotation Xrotation Yrotation
            JOINT lHand
            {
              OFFSET 22.5879 0.773209 7.07136
              CHANNELS 3 Zrotation Xrotation Yrotation
              JOINT lThumb1
              {
                OFFSET 1.2192 -0.487915 3.41376
                CHANNELS 3 Zrotation Xrotation Yrotation
                JOINT lThumb2
                {
                  OFFSET 3.37035 -0.52449 3.41376
                  CHANNELS 3 Zrotation Xrotation Yrotation
                  End Site
                  {
                    OFFSET 1.78271 -1.18214 1.43049
                  }
                }
              }
              JOINT lIndex1
              {
                OFFSET 7.75947 0.938293 5.60832
                CHANNELS 3 Zrotation Xrotation Yrotation
                JOINT lIndex2
                {
                  OFFSET 2.54057 -0.884171 1.56538
                  CHANNELS 3 Zrotation Xrotation Yrotation
                  End Site
                  {
                    OFFSET 1.62519 -0.234802 1.16502
                  }
                }
              }
              JOINT lMid1
              {
                OFFSET 8.24714 1.18213 3.41376
                CHANNELS 3 Zrotation Xrotation Yrotation
                JOINT lMid2
                {
                  OFFSET 3.10165 -0.590103 1.0647
                  CHANNELS 3 Zrotation Xrotation Yrotation
                  End Site
                  {
                    OFFSET 2.48547 -0.328903 0.83742
                  }
                }
              }
              JOINT lRing1
              {
                OFFSET 8.82822 0.546677 1.51678
                CHANNELS 3 Zrotation Xrotation Yrotation
                JOINT lRing2
                {
                  OFFSET 2.60934 -0.819778 -0.0198488
                  CHANNELS 3 Zrotation Xrotation Yrotation
                  End Site
                  {
                    OFFSET 2.33842 -0.294052 0.168128
                  }
                }
              }
              JOINT lPinky1
              {
                OFFSET 8.27202 -0.0477905 -0.4584
                CHANNELS 3 Zrotation Xrotation Yrotation
                JOINT lPinky2
                {
                  OFFSET 1.82734 -0.647385 -0.700984
                  CHANNELS 3 Zrotation Xrotation Yrotation
                  End Site
                  {
                    OFFSET 1.69225 -0.51767 -0.607171
                  }
                }
              }
            }
          }
        }
      }
    }
  }
  JOINT rButtock
  {
    OFFSET -8.77824 4.35084 1.2192
    CHANNELS 3 Zrotation Xrotation Yrotation
    JOINT rThigh
    {
      OFFSET 0 -1.70687 -2.19456
      CHANNELS 3 Zrotation Xrotation Yrotation
      JOINT rShin
      {
        OFFSET 0 -36.8199 0.73152
        CHANNELS 3 Zrotation Xrotation Yrotation
        JOINT rFoot
        {
          OFFSET 0.73152 -45.1104 -5.12064
          CHANNELS 3 Zrotation Xrotation Yrotation
          End Site
          {
            OFFSET -1.1221 -3.69964 12.103
          }
        }
      }
    }
  }
  JOINT lButtock
  {
    OFFSET 8.77824 4.35084 1.2192
    CHANNELS 3 Zrotation Xrotation Yrotation
    JOINT lThigh
    {
      OFFSET 0 -1.70687 -2.19456
      CHANNELS 3 Zrotation Xrotation Yrotation
      JOINT lShin
      {
        OFFSET 0 -36.8199 0.73152
        CHANNELS 3 Zrotation Xrotation Yrotation
        JOINT lFoot
        {
          OFFSET -0.73152 -45.1104 -5.12064
          CHANNELS 3 Zrotation Xrotation Yrotation
          End Site
          {
            OFFSET 1.1221 -3.69964 12.103
          }
        }
      }
    }
  }
}
MOTION
Frames:	4
Frame Time:	0.00833333
7.80607 84.1089 -127.358 0.0 0.0 0.0 -1.50365 -0.00293074 -0.0409967 -0.414503 0.000755014 -0.0717858 7.93076e-15 -7.95139e-16 3.97569e-16 2.33448e-14 3.18055e-15 1.09332e-15 -0.0 0.0 0.0 -0.0 0.0 0.0 3.77569e-15 -2.13538e-18 2.48481e-16 8.46796e-14 -4.96962e-17 5.36719e-15 1.39656e-12 -4.26989e-13 3.81667e-14 1.60027e-11 3.93743e-13 8.26944e-13 3.77381e-11 -7.47214e-14 1.87335e-12 6.51616e-11 -1.30403e-13 3.22031e-12 3.7744e-11 -7.35503e-14 1.87017e-12 7.73091 5.47488 0.417314 3.77395e-11 -7.45443e-14 1.87017e-12 2.90554 0.965183 0.102902 3.77555e-11 -7.39479e-14 1.86778e-12 10.2786 0.731801 0.0259123 3.77381e-11 -7.35503e-14 1.86699e-12 2.22167 -0.733487 -0.20892 3.77838e-15 -4.27076e-18 9.93923e-17 7.87734e-14 1.36664e-16 3.18055e-15 1.39616e-12 4.16653e-13 7.63333e-14 1.59756e-11 -4.34891e-13 7.85597e-13 3.769e-11 -4.41087e-14 1.86062e-12 6.50901e-11 -7.63333e-14 3.22588e-12 3.76828e-11 -4.21423e-14 1.87653e-12 -7.73091 5.47488 -0.417314 3.76894e-11 -4.3832e-14 1.87017e-12 -2.90554 0.965183 -0.102902 3.76815e-11 -4.36332e-14 1.87176e-12 -10.2786 0.731801 -0.0259123 3.7689e-11 -4.33351e-14 1.86699e-12 -2.22167 -0.733487 0.20892 -2.03217e-16 0.0 -3.88251e-19 -0.6367 -1.92306 -0.00649802 -0.0092025 -2.07856 -0.0759668 -0.50403 3.99732 0.139111 2.03217e-16 0.0 3.88251e-19 -1.65074 -6.46943 0.152919 -0.00228885 6.1568 -0.0670114 0.526698 0.308443 -0.066192
5.76729 82.562 -129.175 -5.9841 -8.4529 6.2723 -0.486097 1.33391 0.3682 -0.651607 -1.03649 0.0424753 -5.13393 3.16469 -4.28092 7.99699 -5.11858 -6.97942 -0.0 0.0 0.0 -0.0 0.0 0.0 4.265e-14 -4.10839e-15 -5.5023e-15 21.9123 4.85673 2.41285 -4.31017 -1.9766 6.71232 0.00499819 -1.57096 -0.220486 -1.49853e-10 1.92738e-10 1.08281e-10 -2.58725e-10 3.33938e-10 1.86926e-10 -1.49847e-10 1.92738e-10 1.08272e-10 7.73091 5.47488 0.417314 -1.49852e-10 1.92737e-10 1.08278e-10 2.90554 0.965183 0.102902 -1.49838e-10 1.92737e-10 1.08275e-10 10.2786 0.731801 0.0259123 -1.49853e-10 1.92738e-10 1.08277e-10 2.22167 -0.733487 -0.20892 4.26376e-14 -4.10878e-15 -5.66381e-15 -22.7184 -2.02891 0.0827561 14.7669 -11.9682 -14.4734 -0.91395 -21.4978 2.30597 1.04474e-10 -2.723e-10 9.57132e-11 1.72228e-10 -4.67525e-10 1.69923e-10 1.04468e-10 -2.72299e-10 9.57275e-11 -7.73091 5.47488 -0.417314 1.04473e-10 -2.723e-10 9.5723e-11 -2.90554 0.965183 -0.102902 1.04467e-10 -2.723e-10 9.57234e-11 -10.2786 0.731801 -0.0259123 1.04474e-10 -2.72299e-10 9.57189e-11 -2.22167 -0.733487 0.20892 -2.03217e-16 0.0 -3.88251e-19 1.06514 -5.2372 1.21453 0.00448211 5.25124 0.0613067 -0.856655 -0.706024 -3.60484 2.03217e-16 0.0 3.88251e-19 0.924359 -11.4731 2.82112 0.0112155 13.644 -0.158031 0.873859 -1.12886 4.4469
5.58305 82.5665 -129.291 -6.1024 -8.424 6.2035 0.54853 2.74211 0.809254 -0.893678 -2.13133 0.165401 -10.0447 6.45145 -8.85097 15.0853 -10.2724 -14.5427 -0.0 0.0 0.0 -0.0 0.0 0.0 8.78054e-14 -1.02895e-14 -9.62863e-15 44.6269 9.98593 5.01934 -8.37378 -3.98071 13.8446 -0.00291379 -3.24213 -0.455602 -3.88082e-10 4.38552e-10 2.51452e-10 -6.70135e-10 7.59833e-10 4.34113e-10 -3.88076e-10 4.38552e-10 2.51437e-10 7.73091 5.47488 0.417314 -3.88081e-10 4.38551e-10 2.51449e-10 2.90554 0.965183 0.102902 -3.88069e-10 4.38551e-10 2.51446e-10 10.2786 0.731801 0.0259123 -3.88081e-10 4.38552e-10 2.5145e-10 2.22167 -0.733487 -0.20892 8.7777e-14 -1.0288e-14 -9.80257e-15 -46.734 -4.1797 0.173785 23.6692 -22.0089 -31.6528 0.668928 -44.0932 6.151 2.01368e-10 -6.178e-10 2.14583e-10 3.29085e-10 -1.06307e-09 3.81536e-10 2.01363e-10 -6.17801e-10 2.14596e-10 -7.73091 5.47488 -0.417314 2.01368e-10 -6.17802e-10 2.14594e-10 -2.90554 0.965183 -0.102902 2.01363e-10 -6.17801e-10 2.14593e-10 -10.2786 0.731801 -0.0259123 2.01369e-10 -6.17799e-10 2.14589e-10 -2.22167 -0.733487 0.20892 -2.03217e-16 0.0 -3.88251e-19 3.00682 -8.72909 2.53185 -0.0199216 12.9972 0.211303 -1.89924 -5.63498 -7.60147 2.03217e-16 0.0 3.88251e-19 4.15439 -16.6936 5.75558 0.0532076 21.54 -0.263645 1.48893 -2.62384 9.24947
5.40849 82.5608 -129.43 -6.248 -8.3264 6.2432 1.49162 4.00683 1.1892 -1.11339 -3.11096 0.271377 -13.9804 9.281 -12.9962 20.2414 -14.4335 -21.5674 -0.0 0.0 0.0 -0.0 0.0 0.0 1.20399e-13 -1.23209e-14 -1.70039e-14 64.4793 14.4651 7.44997 -11.5674 -5.60493 20.2258 -0.0213816 -4.7126 -0.663452 -5.25035e-10 5.78362e-10 3.21096e-10 -9.06497e-10 1.00207e-09 5.54337e-10 -5.2503e-10 5.78362e-10 3.21076e-10 7.73091 5.47488 0.417314 -5.25034e-10 5.7836e-10 3.21093e-10 2.90554 0.965183 0.102902 -5.25025e-10 5.7836e-10 3.21089e-10 10.2786 0.731801 0.0259123 -5.25034e-10 5.78362e-10 3.21097e-10 2.22167 -0.733487 -0.20892 1.20356e-13 -1.23178e-14 -1.71902e-14 -68.1376 -6.08669 0.249519 26.4928 -26.3904 -48.8999 7.97113 -63.7927 14.7048 2.38041e-10 -8.1681e-10 2.83418e-10 3.86503e-10 -1.40242e-09 5.03318e-10 2.38037e-10 -8.16814e-10 2.83429e-10 -7.73091 5.47488 -0.417314 2.38041e-10 -8.16813e-10 2.83429e-10 -2.90554 0.965183 -0.102902 2.38037e-10 -8.16813e-10 2.83427e-10 -10.2786 0.731801 -0.0259123 2.38043e-10 -8.16809e-10 2.83423e-10 -2.22167 -0.733487 0.20892 -2.03217e-16 0.0 -3.88251e-19 4.90048 -11.8447 3.72069 -0.0781589 19.9105 0.356278 -3.41379 -9.92604 -11.262 2.03217e-16 0.0 3.88251e-19 7.56176 -21.3017 8.58042 0.11944 28.6181 -0.373037 2.24196 -3.90311 13.5024
